<?xml version="1.0" encoding="iso-8859-1"?>
<!-- Generator: Adobe Illustrator 16.0.0, SVG Export Plug-In . SVG Version: 6.00 Build 0)  -->
<!DOCTYPE svg PUBLIC "-//W3C//DTD SVG 1.1//EN" "http://www.w3.org/Graphics/SVG/1.1/DTD/svg11.dtd">
<svg version="1.1" id="Capa_1" xmlns="http://www.w3.org/2000/svg" xmlns:xlink="http://www.w3.org/1999/xlink" x="0px" y="0px"
	 width="195.651px" height="195.65px" viewBox="0 0 195.651 195.65" style="enable-background:new 0 0 195.651 195.65;"
	 xml:space="preserve">
<g>
	<path d="M63.877,43.633c0.089-3.104-3.287-5.882-6.33-4.822c-8.393,2.923-15.812,9.609-23.767,13.751
		C22.649,58.358,11.452,63.771,2.096,72.288c-2.779,2.53-2.81,7.615,0,10.14c15.839,14.232,28.183,32.033,47.557,41.89
		c4.747,2.415,10.383-3.899,5.954-7.718C41.905,104.79,30.896,90.42,18.06,77.772c9.217-6.646,19.989-11.25,29.902-16.638
		C55.056,57.278,63.622,52.565,63.877,43.633z"/>
	<path d="M129.258,24.352c-27.067,47.63-54.053,95.231-81.471,142.647c-2.786,4.819,4.198,10.619,7.9,6.096
		c34.862-42.584,58.601-94.069,85.69-141.658C145.866,23.558,133.73,16.485,129.258,24.352z"/>
	<path d="M194.839,89.845c-6.337-11.527-21.564-33.566-35.529-35.945c-4.777-0.814-9.004,3.681-6.406,8.335
		c2.632,4.717,7.77,7.624,11.752,11.185c5.697,5.096,10.956,10.714,15.31,16.978c-19.821,9.745-37.075,24.051-52.451,39.858
		c-3.587,3.688,1.28,10.604,5.67,7.349c19.274-14.282,37.007-29.514,59.346-38.949C195.825,97.265,196.361,92.612,194.839,89.845z"
		/>
</g>
<g>
</g>
<g>
</g>
<g>
</g>
<g>
</g>
<g>
</g>
<g>
</g>
<g>
</g>
<g>
</g>
<g>
</g>
<g>
</g>
<g>
</g>
<g>
</g>
<g>
</g>
<g>
</g>
<g>
</g>
</svg>
