<?xml version="1.0" encoding="iso-8859-1"?>
<!-- Generator: Adobe Illustrator 16.0.0, SVG Export Plug-In . SVG Version: 6.00 Build 0)  -->
<!DOCTYPE svg PUBLIC "-//W3C//DTD SVG 1.1//EN" "http://www.w3.org/Graphics/SVG/1.1/DTD/svg11.dtd">
<svg version="1.1" id="Capa_1" xmlns="http://www.w3.org/2000/svg" xmlns:xlink="http://www.w3.org/1999/xlink" x="0px" y="0px"
	 width="183.447px" height="183.447px" viewBox="0 0 183.447 183.447" style="enable-background:new 0 0 183.447 183.447;"
	 xml:space="preserve">
<g>
	<path d="M141.216,14.141c-23.093-1.603-43.642,11.044-54.61,30.498C62.467,14.406,4.73,37.411,0.327,75.183
		c-2.952,25.316,14.591,43.905,33.545,57.989c11.522,8.562,24.767,15.283,38.001,20.746c7.417,3.062,16.592,7.5,25.522,9.7
		c4.504,3.134,9.307,5.177,14.453,4.577c0.86,0.327,1.716,0.667,2.585,0.974c3.19,1.126,5.185-1.413,5.155-4.029
		c3.209-2.203,5.781-5.41,7.919-9.037c22.966-19.205,54.675-81.435,55.802-93.944C185.39,39.061,163.567,15.691,141.216,14.141z
		 M123.847,24.842c-1.039,0.414-2.066,0.843-3.073,1.291c-9.248,3.182-17.103,8.739-24.421,16.403
		C103.742,33.968,112.955,27.704,123.847,24.842z"/>
</g>
<g>
</g>
<g>
</g>
<g>
</g>
<g>
</g>
<g>
</g>
<g>
</g>
<g>
</g>
<g>
</g>
<g>
</g>
<g>
</g>
<g>
</g>
<g>
</g>
<g>
</g>
<g>
</g>
<g>
</g>
</svg>
