<?xml version="1.0" encoding="iso-8859-1"?>
<!-- Generator: Adobe Illustrator 16.0.0, SVG Export Plug-In . SVG Version: 6.00 Build 0)  -->
<!DOCTYPE svg PUBLIC "-//W3C//DTD SVG 1.1//EN" "http://www.w3.org/Graphics/SVG/1.1/DTD/svg11.dtd">
<svg version="1.1" id="Capa_1" xmlns="http://www.w3.org/2000/svg" xmlns:xlink="http://www.w3.org/1999/xlink" x="0px" y="0px"
	 width="191.139px" height="191.139px" viewBox="0 0 191.139 191.139" style="enable-background:new 0 0 191.139 191.139;"
	 xml:space="preserve">
<g>
	<path d="M138.32,152.467c-3.707-13.415-13.598-24.399-25.858-30.443c0.478-0.438,0.824-1.071,0.899-1.92
		c1.298-14.728,1.839-29.892,1.902-44.676c0.005-1.036-0.286-1.882-0.747-2.558c9.05-3.699,16.721-10.784,20.289-19.952
		c6.71-17.238,2.212-35.374-8.899-49.615c-2.5-3.203-6.373-0.834-7.046,2.377c-0.402,0.28-0.749,0.628-0.986,1.03
		c-2.841,4.833,0.07,10.802-2.727,15.98c-2.156,3.99-6.916,4.844-11.027,4.629C91.17,26.642,84.011,12.822,82.448,1.7
		c-0.395-2.81-4.39-1.81-4.618,0.625c-0.018,0.197-0.013,0.39-0.028,0.587c-0.712-0.714-1.825-1.091-2.855-0.562
		C45.345,17.52,55.752,53.415,78.7,68.687c-3.854,5.923-2.93,14.613-2.466,21.351c0.694,10.077,2.7,20,4.589,29.907
		c-28.991,13.137-44.738,67.688-6.734,71.186c1.377,0.127,2.023-1.094,1.872-2.221c1.664,1.784,5.472,1.133,5.095-1.79
		c-1.448-11.235,3.187-19.62,14.401-22.348c8.667-2.109,16.361,1.747,16.667,10.879c0.054,1.596,0.849,3.379,2.362,4.118
		c1.155,0.563,2.042,0.723,3.217,0.546c-0.456,1.682,0.083,3.57,2.2,3.947C137.92,187.471,141.837,165.193,138.32,152.467z
		 M64.545,177.627c0.467-0.087,0.928-0.23,1.37-0.427c0.304,1.157,0.64,2.313,0.988,3.472
		C66.02,179.689,65.242,178.672,64.545,177.627z M119.482,45.748c-0.194-0.581-0.489-1.133-0.872-1.626
		c0.941-0.988,1.859-2,2.743-3.046C120.885,42.705,120.253,44.262,119.482,45.748z"/>
</g>
<g>
</g>
<g>
</g>
<g>
</g>
<g>
</g>
<g>
</g>
<g>
</g>
<g>
</g>
<g>
</g>
<g>
</g>
<g>
</g>
<g>
</g>
<g>
</g>
<g>
</g>
<g>
</g>
<g>
</g>
</svg>
