<?xml version="1.0" encoding="iso-8859-1"?>
<!-- Generator: Adobe Illustrator 16.0.0, SVG Export Plug-In . SVG Version: 6.00 Build 0)  -->
<!DOCTYPE svg PUBLIC "-//W3C//DTD SVG 1.1//EN" "http://www.w3.org/Graphics/SVG/1.1/DTD/svg11.dtd">
<svg version="1.1" id="Capa_1" xmlns="http://www.w3.org/2000/svg" xmlns:xlink="http://www.w3.org/1999/xlink" x="0px" y="0px"
	 width="194.691px" height="194.692px" viewBox="0 0 194.691 194.692" style="enable-background:new 0 0 194.691 194.692;"
	 xml:space="preserve">
<g>
	<path d="M121.541,40.06c-15.552,3.384-24.896-4.509-28.382-19.411c-1.008-4.31-8.493-4.756-9.14,0
		c-0.851,6.251-5.151,12.463-10.265,15.699c-5.334,0.731-10.505-0.414-15.485-2.665c-0.834-1.245-1.588-2.746-2.237-4.535
		c-1.195-3.293-5.442-2.923-6.51-0.414c-4.469-2.064-8.486,4.309-5.119,8.012c7.049,7.749,6.794,18.194,4.126,27.709
		c-0.393,1.402-2.529,4.058-4.335,6.734c-1.789,1.26-3.735,2.303-5.843,2.997c-6.258,2.061-3.554,10.432,2.643,9.586
		c15.318-2.09,28.18,4.109,27.959,21.296c-0.07,5.471,8.874,6.943,9.746,1.318c2.614-16.871,17.29-19.355,31.404-14.483
		c3.981,1.375,8.042-3.748,5.587-7.268c-9.967-14.288-4.788-27.505,9.59-35.709C130.212,46.11,126.798,38.917,121.541,40.06z
		 M91.257,40.477c-0.377-0.6-0.727-1.21-1.161-1.788c-0.523-0.695-1.164-1.208-1.842-1.629c-0.14-0.389-0.309-0.771-0.538-1.124
		c0.257-0.337,0.548-0.641,0.791-0.991c1.057,1.864,2.257,3.556,3.566,5.103C91.797,40.183,91.532,40.336,91.257,40.477z"/>
	<path d="M176.334,183.639c-23.394-28.318-47.301-57.206-72.262-84.133c-4.122-4.445-10.824,1.216-8.126,6.27
		c7.836,14.675,19.769,27.327,30.543,39.86c13.371,15.556,27.03,30.854,40.182,46.599C171.535,198.846,182.25,190.8,176.334,183.639
		z"/>
	<path d="M142.279,77.004c-2.383-1.396-5.365-2.235-7.918-3.327c-2.995-1.282-6.025-2.972-9.211-3.718
		c-1.989-0.466-4.394,1.853-2.926,3.806c2.558,3.407,6.622,5.65,10.07,8.054c1.37,0.955,2.742,1.858,3.979,2.972
		c1.52,1.369,3.168,1.586,5.098,1.291c-1.147,0.155-1.019,0.138,0.39-0.052c1.703-0.469,1.509-0.501,0.841-0.394
		c0.363-0.175,0.726-0.389,1.075-0.692C146.121,82.821,144.735,78.443,142.279,77.004z"/>
	<path d="M142.924,48.887c-3.456,0.667-5.958,4.338-8.556,6.565c-2.501,2.143-5.236,3.981-7.688,6.179
		c-3.39,3.036,0.915,7.693,4.582,5.938c2.989-1.431,5.757-3.269,8.483-5.149c3.054-2.105,7.477-4.589,8.286-8.427
		C148.712,50.762,146.109,48.273,142.924,48.887z"/>
	<path d="M127.723,19.204c-6.885-0.368-15.021,4.353-19.899,8.895c-2.495,2.322,0.67,5.524,3.364,4.36
		c2.64-1.14,5.205-2.409,7.933-3.334c2.898-0.982,5.63-0.908,8.603-1.249C133.185,27.25,133.417,19.509,127.723,19.204z"/>
	<path d="M107.999,5.42c-1.411-2.327-4.799-2.327-6.21,0c-1.84,3.033-0.798,6.197-0.433,9.559c0.368,3.397,0.737,6.795,1.104,10.192
		c0.34,3.129,4.526,3.129,4.865,0c0.368-3.398,0.737-6.795,1.105-10.192C108.797,11.616,109.838,8.453,107.999,5.42z"/>
	<path d="M83.936,0.777c-5.09-2.948-10.845,3.161-13.399,7.145c-2.844,4.436-2.798,9.97-1.567,14.9
		c0.922,3.69,7.17,2.996,6.752-0.914c-0.35-3.266-0.22-6.861,1.895-9.578c2.359-3.03,7.039-3.374,8.021-7.374
		C86.033,3.344,85.399,1.625,83.936,0.777z"/>
	<path d="M59.915,15.241c-1.683-3.421-4.323-5.679-6.604-8.6c-1.509-1.933-4.688-0.685-5.259,1.388
		c-0.689,2.505,1.581,4.24,3.87,3.87c1.697-0.274,5.073,4.627,5.882,5.755c1.702,2.375,3.092,5.092,4.308,7.743
		c0.183,0.4,0.88,0.21,0.838-0.227C62.605,21.615,61.487,18.436,59.915,15.241z"/>
	<path d="M41.34,46.775c-3.053-2.286-6.088-3.606-7.937-7.141c-1.685-3.222-0.384-7.804-0.05-11.203
		c0.303-3.093-3.943-4.473-5.913-2.449c-9.622,9.885-0.65,26.338,12.232,26.951C43.285,53.106,43.736,48.569,41.34,46.775z"/>
	<path d="M35.441,57.016c-4.235-1.646-8.312-1.366-12.41,0.495c-4.085,1.856-7.347,6.392-6.164,10.946
		c0.651,2.506,3.813,3.186,5.612,1.482c1.853-1.755,2.768-4.196,4.612-5.956c1.941-1.853,5.158-2.237,7.689-2.085
		C37.785,62.078,37.878,57.963,35.441,57.016z"/>
	<path d="M46.504,89.764c-4.073,2.291-7.56,5.076-12.028,6.667c-4.019,1.431-8.138,0.58-12.114,1.731
		c-3.279,0.949-3.577,5.112-0.903,6.91c8.619,5.796,24.084-4.347,28.627-11.727C51.493,91.058,48.744,88.503,46.504,89.764z"/>
	<path d="M53.421,100.312c-4.818,6.379-11.028,20.417-3.453,27.069c2.501,2.196,6.596,0.792,6.635-2.748
		c0.035-3.22-1.332-6.117-1.361-9.359c-0.04-4.37,1.937-8.732,3.591-12.681C60.243,99.232,55.252,97.887,53.421,100.312z"/>
</g>
<g>
</g>
<g>
</g>
<g>
</g>
<g>
</g>
<g>
</g>
<g>
</g>
<g>
</g>
<g>
</g>
<g>
</g>
<g>
</g>
<g>
</g>
<g>
</g>
<g>
</g>
<g>
</g>
<g>
</g>
</svg>
